<?xml version="1.0" encoding="iso-8859-1" standalone="yes"?><svg xmlns="http://www.w3.org/2000/svg" xmlns:xlink="http://www.w3.org/1999/xlink" version="1.1" id="Capa_1" x="0px" y="0px" viewBox="0 0 512.002 512.002" style="enable-background:new 0 0 30 30;zoom: 1;" xml:space="preserve" width="30px" height="30px"><path style="fill:#BEF2FF;" d="M478.316,464.683c0,0-98.627-67.368-106.981-67.368H87.579c-29.763,0-53.895-24.131-53.895-53.895 V100.894c0-29.763,24.131-53.895,53.895-53.895h336.842c29.763,0,53.895,24.131,53.895,53.895V464.683z"></path><path style="fill:#4F7097;" d="M424.421,13.315H87.579C39.235,13.396,0.081,52.564,0,100.894V343.42 c0.081,48.344,39.235,87.498,87.579,87.579h276.884c15.091,8.354,58.745,36.918,94.316,61.44 c15.158,10.792,36.19,7.249,46.983-7.896c4.123-5.794,6.306-12.746,6.238-19.86V100.894 C511.919,52.564,472.765,13.396,424.421,13.315z M393.432,80.683L269.474,191.706c-7.667,6.858-19.281,6.858-26.947,0 L118.568,80.683H393.432z M371.335,363.63H87.579c-11.156,0-20.211-9.054-20.211-20.211V125.281l130.156,117.086 c33.253,29.898,83.699,29.898,116.952,0l130.156-117.086v276.211C386.829,363.63,380.093,363.63,371.335,363.63z"></path></svg>