<?xml version="1.0" encoding="iso-8859-1" standalone="yes"?><svg xmlns="http://www.w3.org/2000/svg" xmlns:xlink="http://www.w3.org/1999/xlink" version="1.1" id="Capa_1" x="0px" y="0px" viewBox="0 0 512.009 512.009" style="enable-background:new 0 0 30 30;zoom: 1;" xml:space="preserve" width="30px" height="30px"><path style="fill:#BEF2FF;" d="M443.57,375.906c65.667-103.611,34.895-240.839-68.716-306.506S134.016,34.504,68.349,138.116 s-34.895,240.839,68.716,306.506c76.814,48.682,175.553,45.62,249.209-7.744l91.594,42.326L443.57,375.906z"></path><path style="fill:#4F7097;" d="M478.003,512.003c-4.709-0.082-9.336-1.157-13.61-3.13l-75.262-33.752 c-39.972,24.334-85.905,37.1-132.695,36.882C115.044,512.248,0.245,397.817,0,256.439S114.186,0.248,255.565,0.003 C396.957-0.228,511.755,114.19,512,255.568c0.068,42.993-10.684,85.32-31.275,123.06l29.533,88.6 c5.934,17.829-3.702,37.1-21.531,43.034C485.271,511.418,481.651,512.003,478.003,512.003z M256.436,69.686 C152.934,69.604,68.961,153.454,68.893,256.956c-0.068,103.502,83.768,187.475,187.271,187.543 c39.55,0.027,78.093-12.453,110.103-35.658c9.976-7.268,23.096-8.574,34.297-3.402l20.279,9.391l-9.527-28.717 c-3.239-9.704-1.933-20.347,3.539-28.989c55.392-87.252,29.574-202.895-57.678-258.286 C327.057,79.716,292.107,69.604,256.436,69.686z"></path><path style="fill:#4F7097;" d="M307.473,239.808H198.594c-15.039,0-27.22-12.181-27.22-27.22s12.181-27.22,27.22-27.22h108.878 c15.039,0,27.22,12.181,27.22,27.22S322.498,239.808,307.473,239.808z"></path><path style="fill:#4F7097;" d="M307.473,321.467H198.594c-15.039,0-27.22-12.181-27.22-27.22c0-15.039,12.181-27.22,27.22-27.22 h108.878c15.039,0,27.22,12.181,27.22,27.22C334.692,309.286,322.498,321.467,307.473,321.467z"></path></svg>