<?xml version="1.0" encoding="iso-8859-1" standalone="yes"?><svg xmlns="http://www.w3.org/2000/svg" xmlns:xlink="http://www.w3.org/1999/xlink" version="1.1" id="Capa_1" x="0px" y="0px" viewBox="0 0 512 512" style="enable-background:new 0 0 30 30;zoom: 1;" xml:space="preserve" width="30px" height="30px"><g><path style="fill:#BEF2FF;" d="M486.653,185.251H435.96v-50.693c0-14.001-11.345-25.347-25.347-25.347 s-25.347,11.345-25.347,25.347v50.693h-50.693c-14.001,0-25.347,11.345-25.347,25.347c0,14.001,11.345,25.347,25.347,25.347h50.693 v50.693c0,14.001,11.345,25.347,25.347,25.347s25.347-11.345,25.347-25.347v-50.693h50.693c14.001,0,25.347-11.345,25.347-25.347 C512,196.596,500.655,185.251,486.653,185.251z"></path><path style="fill:#BEF2FF;" d="M278.812,423.508v-25.347c0-69.997-56.736-126.733-126.733-126.733l0,0 c-69.997,0-126.733,56.736-126.733,126.733v25.347H278.812z"></path><circle style="fill:#BEF2FF;" cx="152.89" cy="175.213" r="86.787"></circle></g><path style="fill:#4F7097;" d="M222.036,263.318c48.625-38.354,56.949-108.868,18.584-157.483S131.761,48.886,83.137,87.241 S26.188,196.109,64.553,244.734c5.444,6.904,11.68,13.14,18.584,18.584C32.352,289.141,0.264,341.193,0,398.161v25.347 c0,14.001,11.345,25.347,25.347,25.347h253.465c14.001,0,25.347-11.345,25.347-25.347v-25.347 C304.087,341.416,272.425,289.425,222.036,263.318z M152.89,113.773c33.934,0.112,61.349,27.709,61.237,61.643 s-27.709,61.349-61.643,61.237c-33.893-0.112-61.288-27.648-61.237-61.541C91.359,141.158,118.946,113.712,152.89,113.773z M50.693,398.161c0-55.996,45.391-101.386,101.386-101.386s101.386,45.391,101.386,101.386H50.693z"></path></svg>