<?xml version="1.0" standalone="yes"?><svg xmlns="http://www.w3.org/2000/svg" xmlns:xlink="http://www.w3.org/1999/xlink" enable-background="new 0 0 144 144" id="Layer_1" version="1.1" viewBox="0 0 144 144" xml:space="preserve" style="zoom: 1;" width="50px" height="50px"><g><rect fill="#528AC8" height="10.803" opacity="0.3" width="7.92" x="35.086" y="32.651"></rect><rect fill="#528AC8" height="10.794" opacity="0.3" width="8.982" x="106.52" y="32.651"></rect><g><path d="M43.017,119.084 H16.126c-3.189,0-5.775-2.586-5.775-5.775V49.23c0-3.189,2.586-5.775,5.775-5.775H133.42c3.189,0,5.775,2.586,5.775,5.775v64.079 c0,3.189-2.586,5.775-5.775,5.775h-26.889" fill="none" stroke="#3D6CB4" stroke-linecap="round" stroke-linejoin="round" stroke-miterlimit="10"></path><rect fill="none" height="49.813" stroke="#3D6CB4" stroke-linecap="round" stroke-linejoin="round" stroke-miterlimit="10" width="63.519" x="43.014" y="89.248"></rect><rect fill="#528AC8" height="8.863" opacity="0.3" width="63.519" x="43.014" y="89.248"></rect><polyline fill="none" points="43.006,32.652 35.097,32.652 35.097,43.455 115.509,43.455 115.509,32.652 106.531,32.652" stroke="#3D6CB4" stroke-linecap="round" stroke-linejoin="round" stroke-miterlimit="10"></polyline><rect fill="none" height="27.432" stroke="#3D6CB4" stroke-linecap="round" stroke-linejoin="round" stroke-miterlimit="10" width="63.519" x="43.014" y="16.023"></rect><circle cx="107.628" cy="59.964" fill="none" r="2.935" stroke="#3D6CB4" stroke-linecap="round" stroke-linejoin="round" stroke-miterlimit="10"></circle><circle cx="107.628" cy="59.964" fill="#528AC8" opacity="0.3" r="2.935"></circle><circle cx="118.413" cy="59.964" fill="none" r="2.935" stroke="#3D6CB4" stroke-linecap="round" stroke-linejoin="round" stroke-miterlimit="10"></circle><circle cx="118.413" cy="59.964" fill="#528AC8" opacity="0.3" r="2.935"></circle><line fill="none" stroke="#3D6CB4" stroke-linecap="round" stroke-linejoin="round" stroke-miterlimit="10" x1="51.36" x2="96.36" y1="109.555" y2="109.555"></line><line fill="none" stroke="#3D6CB4" stroke-linecap="round" stroke-linejoin="round" stroke-miterlimit="10" x1="51.36" x2="84.36" y1="118.555" y2="118.555"></line><g></g><g></g><line fill="none" stroke="#3D6CB4" stroke-linecap="round" stroke-linejoin="round" stroke-miterlimit="10" x1="57.36" x2="28.36" y1="60.555" y2="60.555"></line></g></g><g></g><g></g><g></g><g></g><g></g><g></g></svg>